# xmcd
#
# Track frame offsets:
#	150
#	17730
#	33879
#	54089
#	72528
#	87347
#	101241
#	112847
#	126844
#	140289
#
# Disc length: 2023 seconds
#
# Revision: 2218492534
# Processed by: cddbd v1.5.2PL0 Copyright (c) Steve Scherf et al.
# Submitted via: EZCDAudioConverter 8.5.0.1
#
DISCID=7f07e50a
DTITLE=Townes Van Zandt - Flyin' Shoes
DYEAR=1978
DGENRE=Country
TTITLE0=Loretta
TTITLE1=No Place To Fall
TTITLE2=Flyin' Shoes
TTITLE3=Who Do You Love
TTITLE4=When She Don't Need Me
TTITLE5=Dollar Bill Blues
TTITLE6=Rex's Blues
TTITLE7=Pueblo Waltz
TTITLE8=Brother Flower
TTITLE9=Snake Song
EXTD=
EXTT0=
EXTT1=
EXTT2=
EXTT3=
EXTT4=
EXTT5=
EXTT6=
EXTT7=
EXTT8=
EXTT9=
PLAYORDER=
